<svg width="64" height="64" viewBox="0 0 64 64" fill="none" xmlns="http://www.w3.org/2000/svg">
<g clip-path="url(#clip0_11617_185)">
<rect width="64" height="64" rx="32" fill="#E8DDD9"/>
<rect width="48" height="16" transform="matrix(-1 4.37114e-08 4.37114e-08 1 56 -3.3457)" fill="#704A33"/>
<path d="M58.6667 -7.99904L82.6665 -7.99902L50.6667 40.001L37.3333 24.0009L58.6667 -7.99904Z" fill="#AC836C"/>
<path d="M5.33334 -7.99904L-18.6665 -7.99902L13.3333 40.001L26.6667 24.0009L5.33334 -7.99904Z" fill="#AC836C"/>
<rect width="42.6667" height="42.6667" rx="21.3333" transform="matrix(-1 4.37114e-08 4.37114e-08 1 53.3335 21.334)" fill="#704A33"/>
<rect width="26.6667" height="26.6667" rx="13.3333" transform="matrix(-1 4.37114e-08 4.37114e-08 1 45.3335 29.334)" fill="#AC836C"/>
<rect width="10.6667" height="10.6667" rx="5.33333" transform="matrix(-1 4.37114e-08 4.37114e-08 1 37.3335 37.334)" fill="#E8DDD9"/>
</g>
<defs>
<clipPath id="clip0_11617_185">
<rect width="64" height="64" rx="32" fill="white"/>
</clipPath>
</defs>
</svg>
