<svg width="64" height="64" viewBox="0 0 64 64" fill="none" xmlns="http://www.w3.org/2000/svg">
<g clip-path="url(#clip0_11617_475)">
<rect width="64" height="64" rx="32" fill="#E8DDD9"/>
<path fill-rule="evenodd" clip-rule="evenodd" d="M64 45.3327L-4.66255e-07 45.3327L0 50.666L64 50.666L64 45.3327Z" fill="#AC836C"/>
<path fill-rule="evenodd" clip-rule="evenodd" d="M64 29.3327L-4.66255e-07 29.3327L0 34.666L64 34.666L64 29.3327Z" fill="#704A33"/>
<path fill-rule="evenodd" clip-rule="evenodd" d="M64 13.3327L-4.66255e-07 13.3327L0 18.666L64 18.666L64 13.3327Z" fill="#AC836C"/>
<rect width="10.6667" height="10.6667" rx="5.33333" transform="matrix(4.37114e-08 1 1 -4.37114e-08 42.6665 10.666)" fill="#704A33"/>
<rect width="10.6667" height="10.6667" rx="5.33333" transform="matrix(4.37114e-08 1 1 -4.37114e-08 26.6665 26.666)" fill="#AC836C"/>
<rect width="10.6667" height="10.6667" rx="5.33333" transform="matrix(4.37114e-08 1 1 -4.37114e-08 10.6665 42.666)" fill="#704A33"/>
</g>
<defs>
<clipPath id="clip0_11617_475">
<rect width="64" height="64" rx="32" fill="white"/>
</clipPath>
</defs>
</svg>
