<svg width="24" height="24" viewBox="0 0 24 24" fill="none" xmlns="http://www.w3.org/2000/svg">
<g clip-path="url(#clip0_4002_23712)">
<rect y="0.000976562" width="24" height="24" rx="12" fill="#E5EAD7"/>
<path d="M8.9857 4.7592C8.17556 6.15607 7.75 7.73169 7.75 9.33431L5 15.001H8V19.001H12V24.001H23V19.1122C23 17.7911 23.701 16.5939 24.5747 15.6028C25.1707 14.9267 25.6639 14.1636 26.0644 13.3483C26.7752 11.9014 27.0898 10.3015 26.9779 8.70254C26.8661 7.10359 26.3315 5.55952 25.4257 4.21903C24.5199 2.87854 23.2734 1.7868 21.8063 1.04897C20.3392 0.311133 18.7008 -0.0479408 17.0491 0.00633071C15.3973 0.0606023 13.7878 0.526391 12.3755 1.35883C10.9633 2.19128 9.79584 3.36233 8.9857 4.7592Z" fill="#9BB168"/>
<rect x="11" y="9.00098" width="2" height="2" rx="1" fill="#4F3422"/>
<rect x="12" y="19.001" width="11" height="5" fill="#4F3422"/>
</g>
<defs>
<clipPath id="clip0_4002_23712">
<rect y="0.000976562" width="24" height="24" rx="12" fill="white"/>
</clipPath>
</defs>
</svg>
