<svg width="21" height="20" viewBox="0 0 21 20" fill="none" xmlns="http://www.w3.org/2000/svg">
<path d="M18.5995 3.91149C17.2595 2.16505 15.3805 0.909593 13.2542 0.339844L12.7366 2.2717C14.4376 2.72749 15.9408 3.73186 17.0128 5.12901C17.8805 6.25981 18.4266 7.59676 18.6033 8.9991L0.666016 8.9991V10.9991L18.6033 10.9991C18.4266 12.4014 17.8805 13.7384 17.0128 14.8692C15.9408 16.2663 14.4376 17.2707 12.7366 17.7265L13.2542 19.6584C15.3805 19.0886 17.2595 17.8332 18.5995 16.0867C19.9396 14.3403 20.666 12.2004 20.666 9.9991C20.666 7.79776 19.9396 5.65793 18.5995 3.91149Z" fill="#FB8728"/>
</svg>
