<svg width="20" height="20" viewBox="0 0 20 20" fill="none" xmlns="http://www.w3.org/2000/svg">
<path d="M17.9335 3.91149C16.5934 2.16505 14.7145 0.909593 12.5882 0.339844L12.0706 2.2717C13.7716 2.72749 15.2748 3.73186 16.3468 5.12901C17.2145 6.25981 17.7606 7.59676 17.9373 8.9991L0 8.9991V10.9991L17.9373 10.9991C17.7606 12.4014 17.2145 13.7384 16.3468 14.8692C15.2748 16.2663 13.7716 17.2707 12.0706 17.7265L12.5882 19.6584C14.7145 19.0886 16.5934 17.8332 17.9335 16.0867C19.2736 14.3403 20 12.2004 20 9.9991C20 7.79776 19.2736 5.65793 17.9335 3.91149Z" fill="#8B5CF6"/>
</svg>
