<svg width="21" height="20" viewBox="0 0 21 20" fill="none" xmlns="http://www.w3.org/2000/svg">
<path d="M18.2665 3.91149C16.9264 2.16505 15.0475 0.909593 12.9212 0.339844L12.4036 2.2717C14.1046 2.72749 15.6078 3.73186 16.6798 5.12901C17.5475 6.25981 18.0936 7.59676 18.2703 8.9991L0.333008 8.9991V10.9991L18.2703 10.9991C18.0936 12.4014 17.5475 13.7384 16.6798 14.8692C15.6078 16.2663 14.1046 17.2707 12.4036 17.7265L12.9212 19.6584C15.0475 19.0886 16.9264 17.8332 18.2665 16.0867C19.6066 14.3403 20.333 12.2004 20.333 9.9991C20.333 7.79776 19.6066 5.65793 18.2665 3.91149Z" fill="#9BB167"/>
</svg>
