<svg width="23" height="17" viewBox="0 0 23 17" fill="none" xmlns="http://www.w3.org/2000/svg">
<path fill-rule="evenodd" clip-rule="evenodd" d="M1.46654 1.00328C4.73796 -0.305287 8.37988 -0.331295 11.666 0.925255C14.9522 -0.331295 18.5941 -0.305287 21.8655 1.00328L22.666 1.32349V17.0005H20.4299L20.2188 16.895C17.9823 15.7767 15.3498 15.7767 13.1132 16.895L12.9021 17.0005H10.4299L10.2188 16.895C7.98227 15.7767 5.34976 15.7767 3.11323 16.895L2.90208 17.0005H0.666016V1.32349L1.46654 1.00328ZM12.666 14.8962V2.68823C15.2539 1.77319 18.0781 1.77319 20.666 2.68823V14.8962C18.1176 13.7763 15.2144 13.7763 12.666 14.8962Z" fill="white"/>
</svg>
