<svg width="20" height="14" viewBox="0 0 20 14" fill="none" xmlns="http://www.w3.org/2000/svg">
<path d="M7 8C7.55228 8 8 7.55228 8 7C8 6.44772 7.55228 6 7 6C6.44772 6 6 6.44772 6 7C6 7.55228 6.44772 8 7 8Z" fill="white"/>
<path d="M14 7C14 7.55228 13.5523 8 13 8C12.4477 8 12 7.55228 12 7C12 6.44772 12.4477 6 13 6C13.5523 6 14 6.44772 14 7Z" fill="white"/>
<path fill-rule="evenodd" clip-rule="evenodd" d="M0 8H1.07089C1.55612 11.3923 4.47353 14 8 14H12C15.5265 14 18.4439 11.3923 18.9291 8H20V6H18.9291C18.4439 2.60771 15.5265 0 12 0H8C4.47353 0 1.55612 2.60771 1.07089 6H0V8ZM6.22549 2.32404C4.34004 3.03995 3 4.86348 3 7C3 9.76142 5.23858 12 8 12H12C14.7614 12 17 9.76142 17 7C17 4.86348 15.66 3.03995 13.7745 2.32404C13.5778 2.88484 13.2567 3.40019 12.8284 3.82843C12.0783 4.57857 11.0609 5 10 5C8.93913 5 7.92172 4.57857 7.17157 3.82843C6.74333 3.40019 6.42222 2.88484 6.22549 2.32404Z" fill="white"/>
</svg>
