<svg width="16" height="19" viewBox="0 0 16 19" fill="none" xmlns="http://www.w3.org/2000/svg">
  <path d="M7 8C7 7.44772 7.44772 7 8 7C8.55228 7 9 7.44772 9 8C9 8.55228 8.55228 9 8 9C7.44772 9 7 8.55228 7 8Z" fill="#9BB167"/>
  <path fill-rule="evenodd" clip-rule="evenodd" d="M8.70711 18.7071L13.636 13.7782C15.1519 12.2623 16 10.1875 16 8.0501C16 3.64112 12.4275 0 8 0C3.57247 0 0 3.64113 0 8.0501C0 10.1875 0.848133 12.2623 2.36396 13.7782L7.29289 18.7071C7.68342 19.0976 8.31658 19.0976 8.70711 18.7071ZM8 5C6.34315 5 5 6.34315 5 8C5 9.65685 6.34315 11 8 11C9.65685 11 11 9.65685 11 8C11 6.34315 9.65685 5 8 5Z" fill="#9BB167"/>
</svg>
