<svg width="64" height="64" viewBox="0 0 64 64" fill="none" xmlns="http://www.w3.org/2000/svg">
<rect x="0.5" y="0.5" width="63" height="63" rx="31.5" stroke="white"/>
<path d="M32 24C29.8783 24 27.8434 24.8429 26.3431 26.3431C24.8429 27.8434 24 29.8783 24 32C24 34.1217 24.8429 36.1566 26.3431 37.6569C27.8434 39.1571 29.8783 40 32 40V42C29.3478 42 26.8043 40.9464 24.9289 39.0711C23.0536 37.1957 22 34.6522 22 32C22 29.3478 23.0536 26.8043 24.9289 24.9289C26.8043 23.0536 29.3478 22 32 22V24Z" fill="white"/>
<path d="M39.8284 31L28 31V33L39.8284 33C39.724 33.2953 39.5733 33.5744 39.3801 33.8263C38.978 34.3502 38.4144 34.7269 37.7765 34.8978L38.2941 36.8296C39.3573 36.5448 40.2967 35.917 40.9668 35.0438C41.6368 34.1706 42 33.1007 42 32C42 30.8993 41.6368 29.8294 40.9668 28.9562C40.2967 28.083 39.3573 27.4552 38.2941 27.1704L37.7765 29.1022C38.4144 29.2731 38.978 29.6498 39.3801 30.1737C39.5733 30.4256 39.724 30.7047 39.8284 31Z" fill="white"/>
<path d="M32 24C29.8783 24 27.8434 24.8429 26.3431 26.3431C24.8429 27.8434 24 29.8783 24 32C24 34.1217 24.8429 36.1566 26.3431 37.6569C27.8434 39.1571 29.8783 40 32 40V42C29.3478 42 26.8043 40.9464 24.9289 39.0711C23.0536 37.1957 22 34.6522 22 32C22 29.3478 23.0536 26.8043 24.9289 24.9289C26.8043 23.0536 29.3478 22 32 22V24Z" stroke="white"/>
<path d="M39.8284 31L28 31V33L39.8284 33C39.724 33.2953 39.5733 33.5744 39.3801 33.8263C38.978 34.3502 38.4144 34.7269 37.7765 34.8978L38.2941 36.8296C39.3573 36.5448 40.2967 35.917 40.9668 35.0438C41.6368 34.1706 42 33.1007 42 32C42 30.8993 41.6368 29.8294 40.9668 28.9562C40.2967 28.083 39.3573 27.4552 38.2941 27.1704L37.7765 29.1022C38.4144 29.2731 38.978 29.6498 39.3801 30.1737C39.5733 30.4256 39.724 30.7047 39.8284 31Z" stroke="white"/>
</svg>
