<svg width="23" height="25" viewBox="0 0 23 25" fill="none" xmlns="http://www.w3.org/2000/svg">
<path d="M0.333008 0V10.6667C0.333008 14.3486 3.31778 17.3333 6.99967 17.3333H20.1983C20.0554 18.0336 19.8001 18.7093 19.4398 19.3333C18.8547 20.3468 18.0131 21.1884 16.9997 21.7735L18.333 24.0829C19.7519 23.2637 20.9301 22.0855 21.7492 20.6667C22.5684 19.2478 22.9997 17.6383 22.9997 16C22.9997 14.3617 22.5684 12.7522 21.7492 11.3333C20.9301 9.91449 19.7519 8.73627 18.333 7.9171L16.9997 10.2265C18.0131 10.8116 18.8547 11.6532 19.4398 12.6667C19.8001 13.2907 20.0554 13.9664 20.1983 14.6667H6.99967C4.79054 14.6667 2.99967 12.8758 2.99967 10.6667V0H0.333008Z" fill="white"/>
</svg>
