<svg width="24" height="24" viewBox="0 0 24 24" fill="none" xmlns="http://www.w3.org/2000/svg">
  <path d="M2 3H10C11.1046 3 12 3.89543 12 5V5C12 6.10457 11.1046 7 10 7H5C3.89543 7 3 7.89543 3 9V9C3 10.1046 3.89543 11 5 11H13" stroke="#a17354" stroke-width="2"/>
  <path d="M14 11H19.5C20.3284 11 21 11.6716 21 12.5V12.5C21 13.3284 20.3284 14 19.5 14H16.5C15.6716 14 15 14.6716 15 15.5V15.5C15 16.3284 15.6716 17 16.5 17H22" stroke="#a17354" stroke-width="2"/>
  <path d="M6 15H10.5C11.3284 15 12 15.6716 12 16.5V16.5C12 17.3284 11.3284 18 10.5 18H8.5C7.67157 18 7 18.6716 7 19.5V19.5C7 20.3284 7.67157 21 8.5 21H13" stroke="#a17354" stroke-width="2"/>
</svg>
