<svg width="24" height="24" viewBox="0 0 24 24" fill="none" xmlns="http://www.w3.org/2000/svg">
<path d="M10.1839 3.93733C10.8987 2.38759 13.1013 2.38759 13.8161 3.93733L15.1989 6.93515C15.4902 7.56677 16.0888 8.00165 16.7795 8.08355L20.0579 8.47226C21.7527 8.6732 22.4333 10.768 21.1803 11.9267L18.7565 14.1682C18.2459 14.6404 18.0172 15.3441 18.1528 16.0263L18.7962 19.2644C19.1288 20.9383 17.3469 22.2329 15.8577 21.3993L12.9769 19.7868C12.37 19.4471 11.6301 19.4471 11.0231 19.7868L8.14239 21.3993C6.65316 22.2329 4.87124 20.9383 5.20385 19.2644L5.84725 16.0263C5.98281 15.3441 5.75417 14.6404 5.2435 14.1682L2.8197 11.9267C1.5667 10.768 2.24733 8.6732 3.94212 8.47226L7.22052 8.08355C7.91124 8.00165 8.50981 7.56677 8.80115 6.93515L10.1839 3.93733Z" stroke="#4F3422" stroke-width="2" stroke-linejoin="round"/>
</svg>
